 
<svg xmlns="http://www.w3.org/2000/svg" version="1.1" xmlns:xlink="http://www.w3.org/1999/xlink" xmlns:svgjs="http://svgjs.com/svgjs" width="512" height="512" x="0" y="0" viewBox="0 0 64 64" style="enable-background:new 0 0 512 512" xml:space="preserve" class=""><g><path d="M38 42H26a1 1 0 0 0-1 1v3a3 3 0 0 0 3 3h8a3 3 0 0 0 3-3v-3a1 1 0 0 0-1-1Zm-1 4a1 1 0 0 1-1 1h-8a1 1 0 0 1-1-1v-2h10ZM15 40a4 4 0 1 0 4 4 4 4 0 0 0-4-4Zm0 6a2 2 0 1 1 2-2 2 2 0 0 1-2 2ZM49 40a4 4 0 1 0 4 4 4 4 0 0 0-4-4Zm0 6a2 2 0 1 1 2-2 2 2 0 0 1-2 2ZM62 14a6 6 0 0 1-6-6 1 1 0 0 0-2 0 6 6 0 0 1-6 6 1 1 0 0 0 0 2 6 6 0 0 1 6 6 1 1 0 0 0 2 0 6 6 0 0 1 6-6 1 1 0 0 0 0-2Zm-7 4.13A8.12 8.12 0 0 0 51.87 15 8.12 8.12 0 0 0 55 11.87 8.12 8.12 0 0 0 58.13 15 8.12 8.12 0 0 0 55 18.13ZM25 10a6 6 0 0 1 6 6 1 1 0 0 0 2 0 6 6 0 0 1 6-6 1 1 0 0 0 0-2 6 6 0 0 1-6-6 1 1 0 0 0-2 0 6 6 0 0 1-6 6 1 1 0 0 0 0 2Zm7-4.13A8.12 8.12 0 0 0 35.13 9 8.12 8.12 0 0 0 32 12.13 8.12 8.12 0 0 0 28.87 9 8.12 8.12 0 0 0 32 5.87ZM8 22a1 1 0 0 0 2 0 6 6 0 0 1 6-6 1 1 0 0 0 0-2 6 6 0 0 1-6-6 1 1 0 0 0-2 0 6 6 0 0 1-6 6 1 1 0 0 0 0 2 6 6 0 0 1 6 6Zm1-10.13A8.12 8.12 0 0 0 12.13 15 8.12 8.12 0 0 0 9 18.13 8.12 8.12 0 0 0 5.87 15 8.12 8.12 0 0 0 9 11.87Z" fill="#000000" data-original="#000000" class=""></path><path d="M58 51v-7.94a7 7 0 0 0-2.88-5.67L54.5 37a3 3 0 0 0 2.5-3v-1a3 3 0 0 0-3-3h-3.26l-1.93-6.44A5 5 0 0 0 44 20H20a5 5 0 0 0-4.79 3.56L13.26 30H10a3 3 0 0 0-3 3v1a3 3 0 0 0 2.5 3l-.62.44A7 7 0 0 0 6 43.06V51a2 2 0 0 0-2 2v2a2 2 0 0 0 2 2h1v3a3 3 0 0 0 3 3h6a3 3 0 0 0 3-3v-3h26v3a3 3 0 0 0 3 3h6a3 3 0 0 0 3-3v-3h1a2 2 0 0 0 2-2v-2a2 2 0 0 0-2-2Zm-4-19a1 1 0 0 1 1 1v1a1 1 0 0 1-1 1h-1.76l-.9-3Zm-36.9-7.86A3 3 0 0 1 20 22h24a3 3 0 0 1 2.88 2.14L50.16 35H13.84ZM9 34v-1a1 1 0 0 1 1-1h2.66l-.9 3H10a1 1 0 0 1-1-1Zm-1 9.06A5 5 0 0 1 10.06 39l2.76-2h38.36l2.76 2A5 5 0 0 1 56 43.06V51H8ZM17 60a1 1 0 0 1-1 1h-6a1 1 0 0 1-1-1v-3h8Zm38 0a1 1 0 0 1-1 1h-6a1 1 0 0 1-1-1v-3h8ZM6 55v-2h52v2Z" fill="#000000" data-original="#000000" class=""></path></g></svg>