 
<svg xmlns="http://www.w3.org/2000/svg" version="1.1" xmlns:xlink="http://www.w3.org/1999/xlink" xmlns:svgjs="http://svgjs.com/svgjs" width="512" height="512" x="0" y="0" viewBox="0 0 128 128" style="enable-background:new 0 0 512 512" xml:space="preserve" class=""><g><path d="M100.634 56.736A15.77 15.77 0 0 0 87.34 42.718a29.363 29.363 0 0 0-58.491 3.715v60.757a5.511 5.511 0 1 0 11.022 0V46.433a18.343 18.343 0 0 1 36.369-3.409 15.752 15.752 0 0 0-11.819 13.7 5.8 5.8 0 0 0-2.753 1.518 5.759 5.759 0 0 0 4.076 9.841h33.491a5.761 5.761 0 0 0 1.4-11.351zM58.223 24.581a21.876 21.876 0 0 0-21.852 21.852v60.757a2.011 2.011 0 1 1-4.022 0V46.433a25.863 25.863 0 0 1 51.432-3.9H79.72a21.762 21.762 0 0 0-21.497-17.952zm13.215 25.045a12.155 12.155 0 0 1 7.01-3.481 12.356 12.356 0 0 1 1.672-.115h4.815c.231 0 .455.008.71.025a12.271 12.271 0 0 1 11.444 10.5H67.966a12.181 12.181 0 0 1 3.472-6.929zm29.408 14.291a2.287 2.287 0 0 1-1.611.67H65.744a2.271 2.271 0 0 1-2.273-2.264 2.244 2.244 0 0 1 .664-1.594 2.279 2.279 0 0 1 1.609-.671h33.491a2.266 2.266 0 0 1 1.611 3.859z" fill="#000000" data-original="#000000" class=""></path><path d="M72.729 73.127a1.751 1.751 0 0 0-1.75 1.75v3.6a1.75 1.75 0 0 0 3.5 0v-3.6a1.75 1.75 0 0 0-1.75-1.75zM83.222 73.127a1.75 1.75 0 0 0-1.75 1.75v3.6a1.75 1.75 0 0 0 3.5 0v-3.6a1.751 1.751 0 0 0-1.75-1.75zM93.714 73.127a1.75 1.75 0 0 0-1.75 1.75v3.6a1.75 1.75 0 0 0 3.5 0v-3.6a1.75 1.75 0 0 0-1.75-1.75zM66.79 84.88a1.75 1.75 0 0 0-1.75 1.75v3.6a1.75 1.75 0 0 0 3.5 0v-3.6a1.75 1.75 0 0 0-1.75-1.75zM77.281 84.88a1.75 1.75 0 0 0-1.75 1.75v3.6a1.75 1.75 0 0 0 3.5 0v-3.6a1.75 1.75 0 0 0-1.75-1.75zM87.773 84.88a1.751 1.751 0 0 0-1.75 1.75v3.6a1.75 1.75 0 1 0 3.5 0v-3.6a1.75 1.75 0 0 0-1.75-1.75zM98.266 84.88a1.75 1.75 0 0 0-1.75 1.75v3.6a1.75 1.75 0 0 0 3.5 0v-3.6a1.751 1.751 0 0 0-1.75-1.75z" fill="#000000" data-original="#000000" class=""></path></g></svg>