 
<svg xmlns="http://www.w3.org/2000/svg" version="1.1" xmlns:xlink="http://www.w3.org/1999/xlink" xmlns:svgjs="http://svgjs.com/svgjs" width="512" height="512" x="0" y="0" viewBox="0 0 512 512" style="enable-background:new 0 0 512 512" xml:space="preserve" class=""><g><path d="M497.473 0H378.98c-8.007 0-14.527 6.516-14.527 14.527v79.649c0 8.008 6.52 14.523 14.527 14.523h118.493c8.011 0 14.527-6.515 14.527-14.523V14.527C512 6.516 505.484 0 497.473 0zm-28.864 52.8a4.194 4.194 0 0 1 5.457.153l9.711 8.899h-26.242zM379.453 15H497v38.621l-12.805-11.73c-6.976-6.387-17.757-6.692-25.082-.707l-27.36 22.363c-.015.012-.03.027-.046.043l-36.844 30.113h-15.41zm39.113 78.703 20.618-16.851H497v16.851zM417.117 209.938h-11.902v-.301c0-11.282-5.75-21.246-14.477-27.117v-32.356c0-17.766-14.453-32.219-32.218-32.219H204.988a7.5 7.5 0 1 0 0 15H358.52c9.496 0 17.218 7.727 17.218 17.22v26.964a32.987 32.987 0 0 0-3.187-.156h-67.149c-18.011 0-32.664 14.652-32.664 32.664v.304h-33.476v-.304c0-18.012-14.653-32.664-32.664-32.664h-67.149c-1.078 0-2.14.054-3.187.156v-26.965c0-9.492 7.722-17.219 17.218-17.219h21.508c4.145 0 7.5-3.355 7.5-7.5a7.5 7.5 0 0 0-7.5-7.5H153.48c-17.765 0-32.218 14.453-32.218 32.22v32.355c-8.727 5.87-14.477 15.835-14.477 27.117v.304h-5.113v-4.535c0-6.437-5.242-11.68-11.684-11.68H58.336v-27.843h15.836a9.62 9.62 0 0 0 7.73-3.918 9.62 9.62 0 0 0 1.418-8.547l-10.18-32.39a9.549 9.549 0 0 0-9.148-6.72H37.684a9.55 9.55 0 0 0-9.149 6.715l-10.18 32.391a9.614 9.614 0 0 0 1.418 8.55 9.615 9.615 0 0 0 7.73 3.919h15.833v27.844H11.68c-6.442 0-11.68 5.238-11.68 11.68v105.359c0 6.441 5.238 11.68 11.68 11.68h63.082a7.5 7.5 0 1 0 0-15H15v-98.72h71.672v2.313c-7.492 2.04-13.871 6.797-18.016 13.145a7.425 7.425 0 0 0-2.691-.508H35.707a7.5 7.5 0 1 0 0 15h27.984c-.07.847-.117 1.703-.117 2.57v31.574c0 1.586.121 3.145.352 4.668H35.707a7.5 7.5 0 1 0 0 15h30.258a7.43 7.43 0 0 0 3.781-1.031c5.711 7.68 14.852 12.668 25.137 12.668h14.777l-4.547 12.328-3.277 8.875c-1.766 4.79-1.078 10.149 1.84 14.336s7.707 6.688 12.812 6.688c4.457 0 8.715-1.91 11.676-5.247l32.856-36.98h138.277a7.5 7.5 0 1 0 0-15H94.883c-8.992 0-16.309-7.316-16.309-16.305v-31.574c0-8.992 7.317-16.305 16.309-16.305H417.12c8.988 0 16.305 7.313 16.305 16.305v31.574c0 8.989-7.317 16.305-16.305 16.305h-87.453c-4.14 0-7.5 3.36-7.5 7.5s3.36 7.5 7.5 7.5h21.316l32.852 36.984a15.624 15.624 0 0 0 24.488-1.445 15.632 15.632 0 0 0 1.84-14.336l-7.824-21.203h14.781c17.262 0 31.305-14.043 31.305-31.305v-31.574c0-17.262-14.047-31.309-31.309-31.309zm-375.465-80.63H60.02l6.78 21.575H34.876zm99.301 174.817-24 27.02a.614.614 0 0 1-.46.207c-.098 0-.325 0-.509-.262-.183-.266-.105-.477-.074-.567l3.277-8.878 6.465-17.52zm-19.168-94.188v-.3c0-9.742 7.926-17.664 17.664-17.664h67.149c9.742 0 17.664 7.922 17.664 17.664v.3zm165.953 0v-.3c0-9.742 7.926-17.664 17.664-17.664h67.149c9.742 0 17.668 7.922 17.668 17.664v.3zM396.09 330.52c.031.09.11.304-.074.566a.561.561 0 0 1-.504.266.621.621 0 0 1-.461-.207l-24.004-27.024h15.3zm0 0" fill="#000000" data-original="#000000" class=""></path><path d="M408.75 61.852c11.578 0 21-9.422 21-21 0-11.579-9.422-21-21-21s-21 9.418-21 21c0 11.578 9.422 21 21 21zm0-27c3.309 0 6 2.691 6 6 0 3.308-2.691 6-6 6s-6-2.692-6-6c0-3.309 2.691-6 6-6zm0 0" fill="#000000" data-original="#000000" class=""></path></g></svg>